<svg width="1300" height="960" viewBox="0 0 1300 960" fill="none" xmlns="http://www.w3.org/2000/svg">
<rect width="1300" height="960" fill="#FCCF2C"/>
<path d="M281 264H341.03C363.522 264 383.245 279.017 389.228 300.698L416.783 400.537C425.5 432.122 454.234 454 487 454V454" stroke="#CEA203" stroke-width="5"/>
<path d="M281 169H348.57C383.848 169 414.358 193.587 421.856 228.06L458.154 394.94C465.652 429.413 496.162 454 531.44 454H541" stroke="#DDAE03" stroke-width="5"/>
<path d="M281 359H319.91C335.872 359 350.305 368.489 356.633 383.143L374.197 423.821C382.106 442.138 400.148 454 420.101 454H531" stroke="#BF9603" stroke-width="5"/>
<path d="M281 644H341.03C363.522 644 383.245 628.983 389.228 607.302L416.783 507.463C425.5 475.878 454.234 454 487 454V454" stroke="#CEA203" stroke-width="5"/>
<path d="M281 739H348.57C383.848 739 414.358 714.413 421.856 679.94L458.154 513.06C465.652 478.587 496.162 454 531.44 454H541" stroke="#DDAE03" stroke-width="5"/>
<path d="M281 549H319.91C335.872 549 350.305 539.511 356.633 524.857L374.197 484.179C382.106 465.862 400.148 454 420.101 454H531" stroke="#BF9603" stroke-width="5"/>
<path d="M583 454L558 439.566V468.434L583 454ZM282 456.5H560.5V451.5H282V456.5Z" fill="#B08A03"/>
<g filter="url(#filter0_dd)">
<rect x="181" y="131" width="75" height="75" rx="15" fill="white"/>
</g>
<circle cx="283" cy="169" r="9" fill="#DDAE03"/>
<path d="M194 180H200.84L202.1 174.96H211.82L213.08 180H219.92L213.08 154.8H200.84L194 180ZM203.54 169.2L205.7 160.92H208.22L210.38 169.2H203.54ZM220.99 170.82C220.99 176.58 224.77 180.36 229.63 180.36C233.41 180.36 235.39 177.48 235.39 177.48H235.57V180H239.35V161.64H235.57V163.98H235.39C235.39 163.98 233.41 161.28 229.63 161.28C224.77 161.28 220.99 165.06 220.99 170.82ZM224.95 170.82C224.95 166.86 227.11 164.7 230.35 164.7C233.41 164.7 235.57 166.86 235.57 170.82C235.57 174.78 233.41 176.94 230.35 176.94C227.11 176.94 224.95 174.78 224.95 170.82Z" fill="#BF9603"/>
<g filter="url(#filter1_dd)">
<rect x="181" y="226" width="75" height="75" rx="15" fill="white"/>
</g>
<circle cx="283" cy="264" r="9" fill="#CEA203"/>
<g filter="url(#filter2_d)">
<rect x="192" y="245.77" width="19" height="44" rx="3" transform="rotate(-13.2753 192 245.77)" fill="#E8B503"/>
</g>
<g filter="url(#filter3_d)">
<rect x="201" y="241" width="19" height="44" rx="3" fill="#FCCF2D"/>
</g>
<g filter="url(#filter4_d)">
<rect x="215.25" y="238" width="19" height="44" rx="3" transform="rotate(18.8962 215.25 238)" fill="#FDDC68"/>
</g>
<g filter="url(#filter5_d)">
<rect x="231.042" y="240" width="19" height="44" rx="3" transform="rotate(39.5925 231.042 240)" fill="#FEE89A"/>
</g>
<g filter="url(#filter6_dd)">
<rect x="181" y="321" width="75" height="75" rx="15" fill="white"/>
</g>
<circle cx="283" cy="359" r="9" fill="#BF9603"/>
<g filter="url(#filter7_d)">
<rect x="199" y="340" width="34" height="34" rx="3" fill="#FEE89A"/>
<rect x="199" y="340" width="34" height="34" rx="3" fill="white"/>
<rect x="199.5" y="340.5" width="33" height="33" rx="2.5" stroke="#8D6F02"/>
</g>
<g filter="url(#filter8_dd)">
<rect x="181" y="416" width="75" height="75" rx="15" fill="white"/>
</g>
<circle cx="283" cy="454" r="9" fill="#B08A03"/>
<path d="M192 436C192 434.343 193.343 433 195 433H200V475H195C193.343 475 192 473.657 192 472V436Z" fill="#FCCF2D"/>
<path d="M244 472C244 473.657 242.657 475 241 475L236 475L236 433L241 433C242.657 433 244 434.343 244 436L244 472Z" fill="#FCCF2D"/>
<rect x="203" y="433" width="8" height="42" fill="#FCCF2D"/>
<rect x="214" y="433" width="8" height="42" fill="#FCCF2D"/>
<rect x="225" y="433" width="8" height="42" fill="#FCCF2D"/>
<g filter="url(#filter9_dd)">
<rect x="181" y="511" width="75" height="75" rx="15" fill="white"/>
</g>
<circle cx="283" cy="549" r="9" fill="#CEA203"/>
<mask id="mask0" mask-type="alpha" maskUnits="userSpaceOnUse" x="181" y="511" width="75" height="75">
<path d="M181 535.15C181 526.608 181 522.336 182.689 519.085C184.112 516.346 186.346 514.112 189.085 512.689C192.336 511 196.608 511 205.15 511H231.85C240.392 511 244.664 511 247.915 512.689C250.654 514.112 252.888 516.346 254.311 519.085C256 522.336 256 526.608 256 535.15V561.85C256 570.392 256 574.664 254.311 577.915C252.888 580.654 250.654 582.888 247.915 584.311C244.664 586 240.392 586 231.85 586H205.15C196.608 586 192.336 586 189.085 584.311C186.346 582.888 184.112 580.654 182.689 577.915C181 574.664 181 570.392 181 561.85V535.15Z" fill="white"/>
</mask>
<g mask="url(#mask0)">
<rect x="150.5" y="530.5" width="87" height="87" rx="37.5" stroke="#FBC709" stroke-width="5"/>
<rect x="157.5" y="541.5" width="69" height="69" rx="27.5" stroke="#E7B603" stroke-width="5"/>
<rect x="145.5" y="552.5" width="69" height="69" rx="17.5" stroke="#BF9603" stroke-width="5"/>
<rect x="134.5" y="563.5" width="69" height="69" rx="7.5" stroke="#8D6F02" stroke-width="5"/>
</g>
<g filter="url(#filter10_dd)">
<rect x="181" y="606" width="75" height="75" rx="15" fill="white"/>
</g>
<circle cx="283" cy="644" r="9" fill="#CEA203"/>
<path fill-rule="evenodd" clip-rule="evenodd" d="M249 615.5H189V614.5H249V615.5Z" fill="#8D6F02"/>
<path fill-rule="evenodd" clip-rule="evenodd" d="M249 625H189V622H249V625Z" fill="#BF9603"/>
<path fill-rule="evenodd" clip-rule="evenodd" d="M249 637.5H189V631.5H249V637.5Z" fill="#E7B603"/>
<path fill-rule="evenodd" clip-rule="evenodd" d="M249 653H189V644H249V653Z" fill="#FBC709"/>
<path fill-rule="evenodd" clip-rule="evenodd" d="M249 669.5C249 671.157 247.657 672.5 246 672.5H192C190.343 672.5 189 671.157 189 669.5V659.5H249V669.5Z" fill="#FCD136"/>
<g filter="url(#filter11_dd)">
<rect x="181" y="701" width="75" height="75" rx="15" fill="white"/>
</g>
<circle cx="283" cy="739" r="9" fill="#DDAE03"/>
<path fill-rule="evenodd" clip-rule="evenodd" d="M209 760H190V762H209V760ZM227 762H246V760H227V762Z" fill="#8D6F02"/>
<path d="M212.5 764.9H214.2V762.3H214.3C214.3 762.3 214.8 763.15 215.85 763.15C217.1 763.15 218.15 762.1 218.15 760.4C218.15 758.7 217.1 757.65 215.85 757.65C214.8 757.65 214.3 758.5 214.3 758.5H214.2V757.8H212.5V764.9ZM214.2 760.4C214.2 759.55 214.65 759.1 215.3 759.1C215.95 759.1 216.4 759.55 216.4 760.4C216.4 761.25 215.95 761.7 215.3 761.7C214.65 761.7 214.2 761.25 214.2 760.4Z" fill="#8D6F02"/>
<path d="M218.25 763H220.15L221 761.15H221.3L222.15 763H224.05L222.6 760.3L223.95 757.8H222.1L221.3 759.6H221L220.2 757.8H218.35L219.7 760.3L218.25 763Z" fill="#8D6F02"/>
<rect x="189" y="757" width="2" height="8" fill="#8D6F02"/>
<rect x="246" y="757" width="2" height="8" fill="#8D6F02"/>
<path fill-rule="evenodd" clip-rule="evenodd" d="M189 742H191V745H237.197V747H191V750H189V747V745V742ZM239.197 742H237.197V750H239.197V742Z" fill="#8D6F02"/>
<path fill-rule="evenodd" clip-rule="evenodd" d="M189 727H191V729.556H220.475V731.333H191V735H189V731.333V729.556V727ZM222.475 727H220.475V735H222.475V727Z" fill="#8D6F02"/>
<path fill-rule="evenodd" clip-rule="evenodd" d="M189 712H191V715H206.705V717H191V720H189V717V715V712ZM208.705 712H206.705V720H208.705V712Z" fill="#8D6F02"/>
<rect x="922" y="601" width="197" height="229" rx="10" fill="black"/>
<path fill-rule="evenodd" clip-rule="evenodd" d="M978.578 724.167H966.984C966.685 724.167 966.444 724.414 966.444 724.724V730.524C966.444 730.83 966.685 731.08 966.984 731.08H971.509V738.287C971.509 738.287 970.494 738.64 967.685 738.64C964.371 738.64 959.743 737.402 959.743 726.993C959.743 716.58 964.563 715.212 969.088 715.212C972.615 715.212 974.335 715.785 975.426 716.148C975.547 716.188 975.659 716.225 975.766 716.259C976.103 716.365 976.413 716.02 976.413 715.714L977.708 710.11C977.708 709.965 977.662 709.793 977.501 709.679C977.061 709.35 974.402 707.829 967.682 707.829C959.942 707.829 952 711.199 952 727.393C952 743.59 961.092 746 968.754 746C975.099 746 978.946 743.225 978.946 743.225C979.103 743.135 979.122 742.908 979.122 742.806V724.724C979.122 724.414 978.877 724.167 978.578 724.167ZM1038.34 709.769C1038.34 709.46 1038.1 709.213 1037.81 709.213H1031.28C1030.98 709.213 1030.74 709.464 1030.74 709.769V722.675H1020.56V709.769C1020.56 709.46 1020.32 709.213 1020.02 709.213H1013.49C1013.19 709.213 1012.95 709.464 1012.95 709.769V744.719C1012.95 745.028 1013.19 745.279 1013.49 745.279H1020.02C1020.32 745.279 1020.56 745.028 1020.56 744.719V729.768H1030.74L1030.72 744.715C1030.72 745.025 1030.96 745.275 1031.26 745.275H1037.8C1038.1 745.275 1038.34 745.025 1038.34 744.715V709.769ZM986.689 710.004C989.015 710.004 990.9 711.948 990.9 714.355C990.9 716.757 989.015 718.709 986.689 718.705C984.363 718.705 982.478 716.757 982.478 714.355C982.478 711.948 984.367 710.004 986.689 710.004ZM990.432 737.347V721.217C990.432 720.911 990.191 720.66 989.892 720.66H983.383C983.084 720.66 982.816 720.974 982.816 721.283V744.397C982.816 745.075 983.229 745.279 983.766 745.279H989.631C990.275 745.279 990.432 744.958 990.432 744.386V737.347ZM1056.68 720.71H1063.15C1063.45 720.71 1063.7 720.961 1063.69 721.271L1063.69 744.73C1063.69 745.036 1063.45 745.286 1063.15 745.286L1058.97 745.306C1058.76 745.306 1058.57 745.153 1058.5 745.004C1058.42 744.855 1058.26 743.582 1058.26 743.582C1058.26 743.582 1054.81 745.996 1050.54 745.996C1045.33 745.996 1041.54 744.295 1041.54 737.347V721.271C1041.54 720.961 1041.79 720.71 1042.08 720.71H1048.66C1048.96 720.71 1049.2 720.961 1049.2 721.271V736.214C1049.2 738.554 1049.82 739.639 1052.15 739.639C1054.49 739.639 1056.13 738.409 1056.13 738.409V721.271C1056.13 720.961 1056.38 720.71 1056.68 720.71ZM1080.87 719.923C1077.18 719.923 1074.68 721.605 1074.68 721.605V709.769C1074.68 709.46 1074.44 709.213 1074.14 709.213H1067.59C1067.3 709.213 1067.05 709.464 1067.05 709.769V744.719C1067.05 745.028 1067.3 745.279 1067.59 745.279H1072.14C1072.34 745.279 1072.5 745.17 1072.61 744.981C1072.72 744.793 1072.89 743.371 1072.89 743.371C1072.89 743.371 1075.57 745.965 1080.64 745.965C1086.59 745.965 1090 742.877 1090 732.104C1090 721.334 1084.55 719.923 1080.87 719.923ZM1078.31 739.616C1076.06 739.546 1074.54 738.503 1074.54 738.503V727.436C1074.54 727.436 1076.05 726.492 1077.89 726.323C1080.22 726.108 1082.47 726.829 1082.47 732.523C1082.47 738.527 1081.45 739.714 1078.31 739.616ZM1004.3 720.652H1009.2C1009.5 720.652 1009.74 720.903 1009.74 721.212V726.593C1009.74 726.899 1009.5 727.149 1009.2 727.149H1004.3V736.974C1004.3 738.456 1005.12 739.6 1007.52 739.6C1007.99 739.6 1008.45 739.555 1008.79 739.521C1009.01 739.5 1009.18 739.483 1009.29 739.483C1009.58 739.483 1009.83 739.729 1009.83 740.039L1009.83 744.765C1009.83 744.989 1009.71 745.193 1009.52 745.267C1009.2 745.388 1007.26 745.921 1005.63 745.921C1002.08 745.921 996.811 745.169 996.811 737.488V727.149H993.39C993.091 727.149 992.85 726.903 992.85 726.593V722.294C992.85 722.039 993.014 721.827 993.24 721.761C993.466 721.694 996.811 720.867 996.811 720.867V714.029C996.811 713.774 996.949 713.656 997.21 713.656H1003.88C1004.17 713.656 1004.29 713.782 1004.29 714.033L1004.3 720.652Z" fill="white"/>
<path fill-rule="evenodd" clip-rule="evenodd" d="M1021 627C1003.37 627 989.096 641.428 989.096 659.24C989.096 673.489 998.241 685.562 1010.91 689.837C1012.5 690.133 1013.09 689.144 1013.09 688.273C1013.09 687.501 1013.07 685.483 1013.05 682.791C1004.18 684.731 1002.3 678.477 1002.3 678.477C1000.85 674.756 998.751 673.746 998.751 673.746C995.852 671.748 998.966 671.787 998.966 671.787C1002.16 672.025 1003.86 675.112 1003.86 675.112C1006.7 680.04 1011.32 678.615 1013.14 677.784C1013.44 675.706 1014.26 674.281 1015.16 673.469C1008.09 672.678 1000.65 669.907 1000.65 657.557C1000.65 654.035 1001.88 651.165 1003.94 648.909C1003.61 648.077 1002.51 644.812 1004.23 640.379C1004.23 640.379 1006.92 639.508 1013.01 643.684C1015.55 642.971 1018.28 642.615 1021 642.595C1023.7 642.615 1026.44 642.971 1028.99 643.684C1035.08 639.508 1037.76 640.379 1037.76 640.379C1039.5 644.812 1038.41 648.097 1038.08 648.909C1040.11 651.165 1041.35 654.035 1041.35 657.557C1041.35 669.947 1033.88 672.658 1026.78 673.469C1027.91 674.459 1028.95 676.438 1028.95 679.446C1028.95 683.761 1028.91 687.224 1028.91 688.293C1028.91 689.164 1029.48 690.153 1031.1 689.837C1043.77 685.562 1052.9 673.489 1052.9 659.259C1052.9 641.428 1038.62 627 1021 627Z" fill="white"/>
<path d="M984.754 782L979.554 767.88H975.874L970.634 782H974.394L975.094 779.74H980.294L980.994 782H984.754ZM979.494 777.2H975.914L977.654 771.24L979.494 777.2ZM995.104 782V771.56H992.044V778.08C992.044 779.04 991.524 779.8 990.284 779.8C989.044 779.8 988.804 778.96 988.804 778.26V771.56H985.704V778.56C985.704 781.14 986.684 782.3 988.984 782.3C990.704 782.3 991.744 781.42 992.024 781.02V782H995.104ZM1003.31 773.7V771.82H1001.27V768.54H998.234V771.8H996.714V773.68H998.234V779.12C998.234 781.56 999.534 782.08 1001.21 782.08C1002.33 782.08 1002.95 781.96 1003.15 781.92V779.54C1003.15 779.54 1002.29 779.56 1002.07 779.56C1001.59 779.56 1001.27 779.4 1001.27 778.7V773.7H1003.31ZM1015.42 776.78C1015.42 774.28 1014.08 771.24 1009.7 771.24C1005.8 771.24 1004.2 774.08 1004.2 776.72C1004.2 780.84 1007.08 782.32 1009.8 782.32C1013.3 782.32 1015.42 780.16 1015.42 776.78ZM1012.3 776.88C1012.3 778.44 1011.54 779.86 1009.84 779.86C1008.04 779.86 1007.3 778.48 1007.3 776.74C1007.3 774.56 1008.52 773.68 1009.68 773.68C1011.36 773.68 1012.3 774.66 1012.3 776.88ZM1017.4 771.56V782H1020.44V775.96C1020.44 775.08 1020.6 773.8 1021.98 773.8C1022.94 773.8 1023.48 774.3 1023.48 775.76V782H1026.54V775.74C1026.54 774.48 1027.02 773.78 1028.12 773.78C1029.22 773.78 1029.56 774.58 1029.56 775.98V782H1032.62V774.34C1032.62 772.28 1031.34 771.28 1029.42 771.28C1027.86 771.28 1026.9 772.02 1026.32 772.5C1025.68 771.74 1024.8 771.28 1023.4 771.28C1021.6 771.28 1020.72 772.32 1020.46 772.64V771.56H1017.4ZM1044.51 782C1044.25 781.62 1044.21 781.28 1044.21 780.38V774.28C1044.21 771.76 1041.51 771.28 1039.71 771.28C1037.43 771.28 1035.31 772.22 1035.31 774.52H1038.39C1038.47 774.06 1038.71 773.3 1040.01 773.3C1041.13 773.3 1041.19 774.2 1041.19 774.56V775.14C1038.89 775.58 1037.79 775.8 1037.07 776.1C1035.77 776.64 1034.87 777.8 1034.87 779.1C1034.87 780.6 1035.91 782.28 1038.29 782.28C1039.89 782.28 1040.67 781.6 1041.49 781.06V782H1044.51ZM1041.19 777V777.46C1041.19 778.94 1040.27 780.02 1039.07 780.02C1038.19 780.02 1037.89 779.32 1037.89 778.96C1037.89 778.5 1038.15 778 1039.21 777.66L1041.19 777ZM1052.47 773.7V771.82H1050.43V768.54H1047.39V771.8H1045.87V773.68H1047.39V779.12C1047.39 781.56 1048.69 782.08 1050.37 782.08C1051.49 782.08 1052.11 781.96 1052.31 781.92V779.54C1052.31 779.54 1051.45 779.56 1051.23 779.56C1050.75 779.56 1050.43 779.4 1050.43 778.7V773.7H1052.47ZM1057.16 770.26V767.88H1054.1V770.26H1057.16ZM1057.16 782V771.56H1054.1V782H1057.16ZM1066.72 778.34C1066.5 779 1065.9 779.9 1064.7 779.9C1063 779.9 1062.38 778.08 1062.38 776.76C1062.38 775.5 1062.96 773.62 1064.6 773.62C1065.8 773.62 1066.36 774.5 1066.64 775.08L1068.92 773.78C1067.46 771.46 1065.4 771.26 1064.46 771.26C1062.1 771.26 1059.22 772.68 1059.22 776.86C1059.22 780.78 1061.96 782.34 1064.4 782.34C1066 782.34 1067.86 781.6 1069.04 779.54L1066.72 778.34ZM958.345 795.66V792.88H947.445V795.66H951.125V807H954.685V795.66H958.345ZM958.235 796.56V807H961.295V801.12C961.295 800 961.595 799.58 963.215 799.32L964.235 799.16V796.44C963.855 796.46 963.275 796.52 962.435 796.86C961.755 797.14 961.475 797.42 961.215 797.64V796.56H958.235ZM974.915 807C974.655 806.62 974.615 806.28 974.615 805.38V799.28C974.615 796.76 971.915 796.28 970.115 796.28C967.835 796.28 965.715 797.22 965.715 799.52H968.795C968.875 799.06 969.115 798.3 970.415 798.3C971.535 798.3 971.595 799.2 971.595 799.56V800.14C969.295 800.58 968.195 800.8 967.475 801.1C966.175 801.64 965.275 802.8 965.275 804.1C965.275 805.6 966.315 807.28 968.695 807.28C970.295 807.28 971.075 806.6 971.895 806.06V807H974.915ZM971.595 802V802.46C971.595 803.94 970.675 805.02 969.475 805.02C968.595 805.02 968.295 804.32 968.295 803.96C968.295 803.5 968.555 803 969.615 802.66L971.595 802ZM986.755 807V799.5C986.755 797.38 985.635 796.3 983.515 796.3C982.055 796.3 981.075 796.88 980.575 797.48V796.56H977.455V807H980.535V801.16C980.535 799.76 980.735 798.76 982.155 798.76C983.395 798.76 983.675 799.58 983.675 800.56V807H986.755ZM997.885 797.78C996.625 796.82 995.025 796.22 993.245 796.22C990.305 796.22 988.825 797.94 988.825 799.72C988.825 801.32 989.845 802.4 992.325 802.82L993.265 802.98C994.385 803.16 994.925 803.32 994.925 803.9C994.925 804.56 994.085 804.92 993.065 804.92C991.945 804.92 990.785 804.28 990.025 803.48L988.085 805.24C988.845 806.06 990.545 807.26 993.145 807.26C995.325 807.26 998.085 806.22 998.085 803.62C998.085 801.68 996.585 800.76 994.325 800.34L993.585 800.2C992.365 799.96 991.885 799.8 991.885 799.3C991.885 798.72 992.665 798.5 993.325 798.5C994.305 798.5 995.305 798.98 995.985 799.54L997.885 797.78ZM1005.49 798.68V796.8H1003.43V796.18C1003.43 795.42 1003.53 795.16 1004.81 795.16H1005.37V792.84C1005.25 792.82 1004.25 792.66 1003.53 792.66C1001.73 792.66 1000.39 793.5 1000.39 795.3V796.8H998.755V798.68H1000.39V807H1003.45V798.68H1005.49ZM1017.49 801.78C1017.49 799.28 1016.15 796.24 1011.77 796.24C1007.87 796.24 1006.27 799.08 1006.27 801.72C1006.27 805.84 1009.15 807.32 1011.87 807.32C1015.37 807.32 1017.49 805.16 1017.49 801.78ZM1014.37 801.88C1014.37 803.44 1013.61 804.86 1011.91 804.86C1010.11 804.86 1009.37 803.48 1009.37 801.74C1009.37 799.56 1010.59 798.68 1011.75 798.68C1013.43 798.68 1014.37 799.66 1014.37 801.88ZM1019.47 796.56V807H1022.53V801.12C1022.53 800 1022.83 799.58 1024.45 799.32L1025.47 799.16V796.44C1025.09 796.46 1024.51 796.52 1023.67 796.86C1022.99 797.14 1022.71 797.42 1022.45 797.64V796.56H1019.47ZM1026.97 796.56V807H1030.01V800.96C1030.01 800.08 1030.17 798.8 1031.55 798.8C1032.51 798.8 1033.05 799.3 1033.05 800.76V807H1036.11V800.74C1036.11 799.48 1036.59 798.78 1037.69 798.78C1038.79 798.78 1039.13 799.58 1039.13 800.98V807H1042.19V799.34C1042.19 797.28 1040.91 796.28 1038.99 796.28C1037.43 796.28 1036.47 797.02 1035.89 797.5C1035.25 796.74 1034.37 796.28 1032.97 796.28C1031.17 796.28 1030.29 797.32 1030.03 797.64V796.56H1026.97ZM1054.07 807C1053.81 806.62 1053.77 806.28 1053.77 805.38V799.28C1053.77 796.76 1051.07 796.28 1049.27 796.28C1046.99 796.28 1044.87 797.22 1044.87 799.52H1047.95C1048.03 799.06 1048.27 798.3 1049.57 798.3C1050.69 798.3 1050.75 799.2 1050.75 799.56V800.14C1048.45 800.58 1047.35 800.8 1046.63 801.1C1045.33 801.64 1044.43 802.8 1044.43 804.1C1044.43 805.6 1045.47 807.28 1047.85 807.28C1049.45 807.28 1050.23 806.6 1051.05 806.06V807H1054.07ZM1050.75 802V802.46C1050.75 803.94 1049.83 805.02 1048.63 805.02C1047.75 805.02 1047.45 804.32 1047.45 803.96C1047.45 803.5 1047.71 803 1048.77 802.66L1050.75 802ZM1062.03 798.7V796.82H1059.99V793.54H1056.95V796.8H1055.43V798.68H1056.95V804.12C1056.95 806.56 1058.25 807.08 1059.93 807.08C1061.05 807.08 1061.67 806.96 1061.87 806.92V804.54C1061.87 804.54 1061.01 804.56 1060.79 804.56C1060.31 804.56 1059.99 804.4 1059.99 803.7V798.7H1062.03ZM1066.73 795.26V792.88H1063.67V795.26H1066.73ZM1066.73 807V796.56H1063.67V807H1066.73ZM1079.99 801.78C1079.99 799.28 1078.65 796.24 1074.27 796.24C1070.37 796.24 1068.77 799.08 1068.77 801.72C1068.77 805.84 1071.65 807.32 1074.37 807.32C1077.87 807.32 1079.99 805.16 1079.99 801.78ZM1076.87 801.88C1076.87 803.44 1076.11 804.86 1074.41 804.86C1072.61 804.86 1071.87 803.48 1071.87 801.74C1071.87 799.56 1073.09 798.68 1074.25 798.68C1075.93 798.68 1076.87 799.66 1076.87 801.88ZM1091.33 807V799.5C1091.33 797.38 1090.21 796.3 1088.09 796.3C1086.63 796.3 1085.65 796.88 1085.15 797.48V796.56H1082.03V807H1085.11V801.16C1085.11 799.76 1085.31 798.76 1086.73 798.76C1087.97 798.76 1088.25 799.58 1088.25 800.56V807H1091.33Z" fill="white"/>
<path d="M628 582H972V650C972 655.523 967.523 660 962 660H638C632.477 660 628 655.523 628 650V582Z" fill="#BF9603"/>
<path d="M969.123 232.539V581.85C969.123 586.163 969.121 589.245 968.92 591.66C968.722 594.044 968.344 595.553 967.715 596.762C966.529 599.045 964.668 600.907 962.385 602.093C961.176 602.721 959.667 603.099 957.282 603.297C954.868 603.498 951.786 603.5 947.473 603.5H652.15C647.837 603.5 644.755 603.498 642.34 603.297C639.956 603.099 638.447 602.721 637.238 602.093C634.955 600.907 633.093 599.045 631.907 596.762C631.279 595.553 630.901 594.044 630.703 591.66C630.502 589.245 630.5 586.163 630.5 581.85V186.713C630.5 182.408 630.502 179.332 630.702 176.922C630.899 174.542 631.277 173.036 631.903 171.828C633.086 169.547 634.943 167.687 637.221 166.499C638.427 165.87 639.933 165.489 642.313 165.286C644.722 165.081 647.798 165.072 652.102 165.063L902.16 164.512C904.305 164.507 904.956 164.523 905.539 164.666C906.094 164.803 906.624 165.024 907.11 165.324C907.622 165.639 908.09 166.092 909.592 167.622L966.152 225.27C967.611 226.757 968.042 227.219 968.342 227.721C968.628 228.198 968.839 228.715 968.969 229.256C969.107 229.824 969.123 230.457 969.123 232.539Z" fill="white" stroke="#BF9603" stroke-width="5"/>
<mask id="mask1" mask-type="alpha" maskUnits="userSpaceOnUse" x="628" y="162" width="344" height="444">
<path d="M628 186.15C628 177.608 628 173.336 629.689 170.085C631.112 167.346 633.346 165.112 636.085 163.689C639.336 162 643.608 162 652.15 162H898.85C902.104 162 903.731 162 905.26 162.376C906.559 162.695 907.802 163.213 908.943 163.912C910.286 164.733 911.431 165.889 913.721 168.201L964.631 219.601C967.239 222.234 968.543 223.55 969.469 225.087C970.256 226.393 970.84 227.812 971.2 229.294C971.623 231.037 971.623 232.89 971.623 236.596V581.234C971.623 589.777 971.623 594.048 969.934 597.299C968.511 600.038 966.277 602.272 963.537 603.695C960.286 605.384 956.015 605.384 947.473 605.384H652.15C643.608 605.384 639.336 605.384 636.085 603.695C633.346 602.272 631.112 600.038 629.689 597.299C628 594.048 628 589.777 628 581.234V186.15Z" fill="#BF9603"/>
</mask>
<g mask="url(#mask1)">
<path d="M669.172 219.841V217.351H668.812C667.012 217.351 666.952 216.061 666.952 214.081V209.941C666.952 207.421 666.352 206.461 664.462 205.921C666.442 205.171 666.952 204.331 666.952 201.871V197.641C666.952 195.301 667.192 194.461 668.662 194.461H669.142V191.941H667.222C663.742 191.941 662.932 193.051 662.932 196.771V201.391C662.932 203.941 662.392 204.421 660.352 204.571V207.181C662.422 207.361 662.932 207.721 662.932 210.361V215.011C662.932 218.701 663.652 219.841 667.282 219.841H669.172Z" fill="#DDD2A7"/>
<path d="M708.585 306.054V303.564H708.225C706.425 303.564 706.365 302.274 706.365 300.294V296.154C706.365 293.634 705.765 292.674 703.875 292.134C705.855 291.384 706.365 290.544 706.365 288.084V283.854C706.365 281.514 706.605 280.674 708.075 280.674H708.555V278.154H706.635C703.155 278.154 702.345 279.264 702.345 282.984V287.604C702.345 290.154 701.805 290.634 699.765 290.784V293.394C701.835 293.574 702.345 293.934 702.345 296.574V301.224C702.345 304.914 703.065 306.054 706.695 306.054H708.585Z" fill="#DDD2A7"/>
<path d="M713.541 480.631V478.051C711.411 477.841 710.961 477.481 710.961 474.871V470.221C710.961 466.591 710.271 465.361 706.641 465.361H704.721V467.881H705.081C706.911 467.881 706.911 469.201 706.911 471.001V475.291C706.911 477.781 707.571 478.741 709.401 479.311C707.421 480.061 706.911 480.901 706.911 483.361V487.591C706.911 490.021 706.641 490.771 705.201 490.771H704.721V493.291H706.671C710.241 493.291 710.961 492.061 710.961 488.461V483.811C710.961 481.171 711.561 480.811 713.541 480.631Z" fill="#DDD2A7"/>
<path d="M669.202 560.686V558.106C667.072 557.896 666.622 557.536 666.622 554.926V550.276C666.622 546.646 665.932 545.416 662.302 545.416H660.382V547.936H660.742C662.572 547.936 662.572 549.256 662.572 551.056V555.346C662.572 557.836 663.232 558.796 665.062 559.366C663.082 560.116 662.572 560.956 662.572 563.416V567.646C662.572 570.076 662.302 570.826 660.862 570.826H660.382V573.346H662.332C665.902 573.346 666.622 572.116 666.622 568.516V563.866C666.622 561.226 667.222 560.866 669.202 560.686Z" fill="#DDD2A7"/>
<rect x="699.435" y="513.013" width="163.806" height="32.0222" rx="3" fill="#C5D6A8"/>
<rect x="725.298" y="325.806" width="73.8974" height="32.0222" rx="3" fill="#D5E1F0"/>
<rect x="725.298" y="419.409" width="94.835" height="32.0222" rx="3" fill="#D5E1F0"/>
<rect x="725.298" y="372.607" width="52.9598" height="32.0222" rx="3" fill="#D5E1F0"/>
<rect x="816.438" y="325.806" width="73.8974" height="32.0222" rx="3" fill="#EBCFDC"/>
<rect x="841.071" y="419.409" width="94.835" height="32.0222" rx="3" fill="#EBCFDC"/>
<rect x="791.806" y="372.607" width="123.162" height="32.0222" rx="3" fill="#EBCFDC"/>
<path d="M905.115 159.537L940.264 193.359L974.086 228.507H913.115C908.697 228.507 905.115 224.926 905.115 220.507V159.537Z" fill="#BF9603"/>
<path d="M812 508C812 505.239 814.239 503 817 503H967V570H817C814.239 570 812 567.761 812 565V508Z" fill="#EA5353"/>
<path d="M844.256 551.16V544.584H837.92V551.16H844.256ZM855.008 523.368V517.512H849.344V523.368H855.008ZM849.344 527.16V550.584C849.344 551.832 849.248 552.552 848.384 553.08C847.568 553.608 846.416 553.608 846.176 553.656V558.888C846.608 558.936 847.04 558.984 847.52 558.984C854.864 558.984 855.008 554.856 855.008 553.368V527.16H849.344ZM880.88 530.904C877.28 526.728 872.432 526.44 870.56 526.44C864.8 526.44 860.24 529.512 860.24 534.264C860.24 539.928 866.72 541.128 868.592 541.464L871.568 541.992C873.776 542.376 875.12 542.904 875.12 544.296C875.12 545.352 873.872 547.128 870.416 547.128C866.816 547.128 864.656 545.592 863.504 544.056L859.184 547.56C860.528 548.952 864.08 551.88 870.704 551.88C877.328 551.88 881.504 548.088 881.504 543.672C881.504 539.784 878.72 537.624 875.072 536.952L871.184 536.232C867.728 535.608 866.288 535.128 866.288 533.544C866.288 531.384 869.168 531.048 870.272 531.048C873.056 531.048 875.504 532.152 876.8 534.696L880.88 530.904ZM909.512 539.064C909.464 529.944 902.36 526.44 897.128 526.44C888.632 526.44 884.84 533.304 884.84 539.064C884.84 544.92 888.584 551.88 897.32 551.88C905.48 551.88 909.512 545.496 909.512 539.064ZM890.84 538.92C890.84 534.072 893.672 531.624 897.032 531.624C901.448 531.624 903.512 535.512 903.512 539.352C903.512 543 901.544 546.6 897.32 546.6C893.192 546.6 890.84 543.144 890.84 538.92ZM914.168 527.16V551.16H919.976V540.744C919.976 536.616 920.504 534.6 922.232 533.16C923.432 532.152 924.632 532.056 925.256 532.056C928.808 532.056 929.48 535.032 929.48 537.672V551.16H935.144V534.456C935.144 529.752 932.456 526.44 927.368 526.44C926.408 526.44 922.136 526.728 919.976 529.992V527.16H914.168Z" fill="white"/>
<rect x="703.129" y="232.203" width="163.806" height="32.0222" rx="3" fill="#C5D6A8"/>
</g>
<path d="M665.35 624.508C663.418 622.66 660.814 620.756 656.642 620.756C651.546 620.756 648.662 623.472 648.662 627.364C648.662 630.836 651.49 632.46 654.962 632.936L657.23 633.244C658.994 633.468 660.674 633.86 660.674 635.26C660.674 636.912 658.49 637.556 657.034 637.556C654.906 637.556 652.638 636.66 651.322 635.064L647.57 637.444C649.586 639.796 651.966 641.448 656.586 641.448C662.242 641.448 665.574 638.732 665.574 634.56C665.574 631.172 663.446 629.604 658.294 628.876L656.11 628.568C654.43 628.316 653.59 627.812 653.59 626.748C653.59 625.824 654.514 624.648 656.53 624.648C658.658 624.648 660.282 625.628 661.71 627.112L665.35 624.508ZM676.144 629.38V626.748H673.288V622.156H669.032V626.72H666.904V629.352H669.032V636.968C669.032 640.384 670.852 641.112 673.204 641.112C674.772 641.112 675.64 640.944 675.92 640.888V637.556C675.92 637.556 674.716 637.584 674.408 637.584C673.736 637.584 673.288 637.36 673.288 636.38V629.38H676.144ZM685.902 626.384L683.494 636.856L681.086 626.384H676.494L680.75 640.132C680.974 640.832 681.058 641.14 681.058 641.532C681.058 642.036 680.778 642.596 679.602 642.596H677.754V646.04H680.862C682.15 646.04 683.018 645.872 683.914 644.92C684.67 644.108 685.006 643.212 685.342 642.176L690.494 626.384H685.902ZM696.71 641V621.232H692.426V641H696.71ZM714.406 634.588V634.392C714.406 630.332 712.558 625.936 707.07 625.936C701.358 625.936 699.566 630.304 699.566 633.972C699.566 638.704 702.506 641.532 706.958 641.532C709.982 641.532 712.586 640.076 714.238 637.304L710.99 635.624C710.542 636.828 709.338 638.228 707.294 638.228C705.306 638.228 703.962 636.716 703.962 634.756V634.588H714.406ZM703.962 631.9C704.158 630.724 704.998 629.016 707.042 629.016C708.806 629.016 709.898 630.276 709.954 631.9H703.962ZM725.046 641H732.83C740.698 641 742.742 635.82 742.742 631.116C742.742 624.62 739.466 621.232 731.822 621.232H725.046V641ZM730.03 625.404H732.466C736.778 625.404 737.786 627.98 737.786 631.06C737.786 635.54 735.882 637.024 731.626 637.024H730.03V625.404ZM749.784 624.564V621.232H745.5V624.564H749.784ZM749.784 641V626.384H745.5V641H749.784ZM763.168 635.876C762.86 636.8 762.02 638.06 760.34 638.06C757.96 638.06 757.092 635.512 757.092 633.664C757.092 631.9 757.904 629.268 760.2 629.268C761.88 629.268 762.664 630.5 763.056 631.312L766.248 629.492C764.204 626.244 761.32 625.964 760.004 625.964C756.7 625.964 752.668 627.952 752.668 633.804C752.668 639.292 756.504 641.476 759.92 641.476C762.16 641.476 764.764 640.44 766.416 637.556L763.168 635.876ZM776.386 629.38V626.748H773.53V622.156H769.274V626.72H767.146V629.352H769.274V636.968C769.274 640.384 771.094 641.112 773.446 641.112C775.014 641.112 775.882 640.944 776.162 640.888V637.556C776.162 637.556 774.958 637.584 774.65 637.584C773.978 637.584 773.53 637.36 773.53 636.38V629.38H776.386ZM782.952 624.564V621.232H778.668V624.564H782.952ZM782.952 641V626.384H778.668V641H782.952ZM801.516 633.692C801.516 630.192 799.64 625.936 793.508 625.936C788.048 625.936 785.808 629.912 785.808 633.608C785.808 639.376 789.84 641.448 793.648 641.448C798.548 641.448 801.516 638.424 801.516 633.692ZM797.148 633.832C797.148 636.016 796.084 638.004 793.704 638.004C791.184 638.004 790.148 636.072 790.148 633.636C790.148 630.584 791.856 629.352 793.48 629.352C795.832 629.352 797.148 630.724 797.148 633.832ZM817.392 641V630.5C817.392 627.532 815.824 626.02 812.856 626.02C810.812 626.02 809.44 626.832 808.74 627.672V626.384H804.372V641H808.684V632.824C808.684 630.864 808.964 629.464 810.952 629.464C812.688 629.464 813.08 630.612 813.08 631.984V641H817.392ZM834.039 641C833.675 640.468 833.619 639.992 833.619 638.732V630.192C833.619 626.664 829.839 625.992 827.319 625.992C824.127 625.992 821.159 627.308 821.159 630.528H825.471C825.583 629.884 825.919 628.82 827.739 628.82C829.307 628.82 829.391 630.08 829.391 630.584V631.396C826.171 632.012 824.631 632.32 823.623 632.74C821.803 633.496 820.543 635.12 820.543 636.94C820.543 639.04 821.999 641.392 825.331 641.392C827.571 641.392 828.663 640.44 829.811 639.684V641H834.039ZM829.391 634V634.644C829.391 636.716 828.103 638.228 826.423 638.228C825.191 638.228 824.771 637.248 824.771 636.744C824.771 636.1 825.135 635.4 826.619 634.924L829.391 634ZM837.511 626.384V641H841.795V632.768C841.795 631.2 842.215 630.612 844.483 630.248L845.911 630.024V626.216C845.379 626.244 844.567 626.328 843.391 626.804C842.439 627.196 842.047 627.588 841.683 627.896V626.384H837.511ZM855.543 626.384L853.135 636.856L850.727 626.384H846.135L850.391 640.132C850.615 640.832 850.699 641.14 850.699 641.532C850.699 642.036 850.419 642.596 849.243 642.596H847.395V646.04H850.503C851.791 646.04 852.659 645.872 853.555 644.92C854.311 644.108 854.647 643.212 854.983 642.176L860.135 626.384H855.543ZM870.187 621.232V641H875.171V633.944H878.251L882.199 641H887.631L883.067 633.104C885.223 632.348 887.127 631.004 887.127 627.644C887.127 621.988 882.479 621.232 879.539 621.232H870.187ZM875.143 624.9H879.259C880.127 624.9 882.199 624.956 882.199 627.532C882.199 628.148 882.059 630.276 879.231 630.276H875.143V624.9ZM903.871 634.588V634.392C903.871 630.332 902.023 625.936 896.535 625.936C890.823 625.936 889.031 630.304 889.031 633.972C889.031 638.704 891.971 641.532 896.423 641.532C899.447 641.532 902.051 640.076 903.703 637.304L900.455 635.624C900.007 636.828 898.803 638.228 896.759 638.228C894.771 638.228 893.427 636.716 893.427 634.756V634.588H903.871ZM893.427 631.9C893.623 630.724 894.463 629.016 896.507 629.016C898.271 629.016 899.363 630.276 899.419 631.9H893.427ZM919.187 641C918.823 640.468 918.767 639.992 918.767 638.732V630.192C918.767 626.664 914.987 625.992 912.467 625.992C909.275 625.992 906.307 627.308 906.307 630.528H910.619C910.731 629.884 911.067 628.82 912.887 628.82C914.455 628.82 914.539 630.08 914.539 630.584V631.396C911.319 632.012 909.779 632.32 908.771 632.74C906.951 633.496 905.691 635.12 905.691 636.94C905.691 639.04 907.147 641.392 910.479 641.392C912.719 641.392 913.811 640.44 914.959 639.684V641H919.187ZM914.539 634V634.644C914.539 636.716 913.251 638.228 911.571 638.228C910.339 638.228 909.919 637.248 909.919 636.744C909.919 636.1 910.283 635.4 911.767 634.924L914.539 634ZM935.791 641V621.232H931.619V627.476C931.059 627.028 929.799 625.992 927.755 625.992C923.779 625.992 921.651 629.464 921.651 633.804C921.651 638.732 924.535 641.392 927.979 641.392C928.763 641.392 930.275 641.252 931.871 639.628V641H935.791ZM926.019 633.776C926.019 631.704 926.719 629.212 929.015 629.212C931.367 629.212 931.703 631.984 931.703 633.804C931.703 634.504 931.591 638.2 928.791 638.2C926.299 638.2 926.019 635.064 926.019 633.776ZM947.09 626.384L944.682 636.856L942.274 626.384H937.682L941.938 640.132C942.162 640.832 942.246 641.14 942.246 641.532C942.246 642.036 941.966 642.596 940.79 642.596H938.942V646.04H942.05C943.338 646.04 944.206 645.872 945.102 644.92C945.858 644.108 946.194 643.212 946.53 642.176L951.682 626.384H947.09Z" fill="white"/>
<path d="M913 741L888 726.566V755.434L913 741ZM797.5 660V717H802.5V660H797.5ZM824 743.5H890.5V738.5H824V743.5ZM797.5 717C797.5 731.636 809.364 743.5 824 743.5V738.5C812.126 738.5 802.5 728.874 802.5 717H797.5Z" fill="#B08A03"/>
<defs>
<filter id="filter0_dd" x="161" y="117" width="115" height="115" filterUnits="userSpaceOnUse" color-interpolation-filters="sRGB">
<feFlood flood-opacity="0" result="BackgroundImageFix"/>
<feColorMatrix in="SourceAlpha" type="matrix" values="0 0 0 0 0 0 0 0 0 0 0 0 0 0 0 0 0 0 127 0"/>
<feOffset dy="6"/>
<feGaussianBlur stdDeviation="10"/>
<feColorMatrix type="matrix" values="0 0 0 0 0 0 0 0 0 0 0 0 0 0 0 0 0 0 0.1 0"/>
<feBlend mode="normal" in2="BackgroundImageFix" result="effect1_dropShadow"/>
<feColorMatrix in="SourceAlpha" type="matrix" values="0 0 0 0 0 0 0 0 0 0 0 0 0 0 0 0 0 0 127 0"/>
<feOffset dy="1"/>
<feGaussianBlur stdDeviation="3"/>
<feColorMatrix type="matrix" values="0 0 0 0 0 0 0 0 0 0 0 0 0 0 0 0 0 0 0.05 0"/>
<feBlend mode="normal" in2="effect1_dropShadow" result="effect2_dropShadow"/>
<feBlend mode="normal" in="SourceGraphic" in2="effect2_dropShadow" result="shape"/>
</filter>
<filter id="filter1_dd" x="161" y="212" width="115" height="115" filterUnits="userSpaceOnUse" color-interpolation-filters="sRGB">
<feFlood flood-opacity="0" result="BackgroundImageFix"/>
<feColorMatrix in="SourceAlpha" type="matrix" values="0 0 0 0 0 0 0 0 0 0 0 0 0 0 0 0 0 0 127 0"/>
<feOffset dy="6"/>
<feGaussianBlur stdDeviation="10"/>
<feColorMatrix type="matrix" values="0 0 0 0 0 0 0 0 0 0 0 0 0 0 0 0 0 0 0.1 0"/>
<feBlend mode="normal" in2="BackgroundImageFix" result="effect1_dropShadow"/>
<feColorMatrix in="SourceAlpha" type="matrix" values="0 0 0 0 0 0 0 0 0 0 0 0 0 0 0 0 0 0 127 0"/>
<feOffset dy="1"/>
<feGaussianBlur stdDeviation="3"/>
<feColorMatrix type="matrix" values="0 0 0 0 0 0 0 0 0 0 0 0 0 0 0 0 0 0 0.05 0"/>
<feBlend mode="normal" in2="effect1_dropShadow" result="effect2_dropShadow"/>
<feBlend mode="normal" in="SourceGraphic" in2="effect2_dropShadow" result="shape"/>
</filter>
<filter id="filter2_d" x="185.608" y="237.015" width="37.3799" height="55.9711" filterUnits="userSpaceOnUse" color-interpolation-filters="sRGB">
<feFlood flood-opacity="0" result="BackgroundImageFix"/>
<feColorMatrix in="SourceAlpha" type="matrix" values="0 0 0 0 0 0 0 0 0 0 0 0 0 0 0 0 0 0 127 0"/>
<feOffset dx="-2"/>
<feGaussianBlur stdDeviation="2.5"/>
<feColorMatrix type="matrix" values="0 0 0 0 0 0 0 0 0 0 0 0 0 0 0 0 0 0 0.02 0"/>
<feBlend mode="normal" in2="BackgroundImageFix" result="effect1_dropShadow"/>
<feBlend mode="normal" in="SourceGraphic" in2="effect1_dropShadow" result="shape"/>
</filter>
<filter id="filter3_d" x="194" y="236" width="29" height="54" filterUnits="userSpaceOnUse" color-interpolation-filters="sRGB">
<feFlood flood-opacity="0" result="BackgroundImageFix"/>
<feColorMatrix in="SourceAlpha" type="matrix" values="0 0 0 0 0 0 0 0 0 0 0 0 0 0 0 0 0 0 127 0"/>
<feOffset dx="-2"/>
<feGaussianBlur stdDeviation="2.5"/>
<feColorMatrix type="matrix" values="0 0 0 0 0 0 0 0 0 0 0 0 0 0 0 0 0 0 0.02 0"/>
<feBlend mode="normal" in2="BackgroundImageFix" result="effect1_dropShadow"/>
<feBlend mode="normal" in="SourceGraphic" in2="effect1_dropShadow" result="shape"/>
</filter>
<filter id="filter4_d" x="194.809" y="233.809" width="40.6075" height="56.1638" filterUnits="userSpaceOnUse" color-interpolation-filters="sRGB">
<feFlood flood-opacity="0" result="BackgroundImageFix"/>
<feColorMatrix in="SourceAlpha" type="matrix" values="0 0 0 0 0 0 0 0 0 0 0 0 0 0 0 0 0 0 127 0"/>
<feOffset dx="-2"/>
<feGaussianBlur stdDeviation="2.5"/>
<feColorMatrix type="matrix" values="0 0 0 0 0 0 0 0 0 0 0 0 0 0 0 0 0 0 0.02 0"/>
<feBlend mode="normal" in2="BackgroundImageFix" result="effect1_dropShadow"/>
<feBlend mode="normal" in="SourceGraphic" in2="effect1_dropShadow" result="shape"/>
</filter>
<filter id="filter5_d" x="197.224" y="236.224" width="50.2362" height="53.568" filterUnits="userSpaceOnUse" color-interpolation-filters="sRGB">
<feFlood flood-opacity="0" result="BackgroundImageFix"/>
<feColorMatrix in="SourceAlpha" type="matrix" values="0 0 0 0 0 0 0 0 0 0 0 0 0 0 0 0 0 0 127 0"/>
<feOffset dx="-2"/>
<feGaussianBlur stdDeviation="2.5"/>
<feColorMatrix type="matrix" values="0 0 0 0 0 0 0 0 0 0 0 0 0 0 0 0 0 0 0.02 0"/>
<feBlend mode="normal" in2="BackgroundImageFix" result="effect1_dropShadow"/>
<feBlend mode="normal" in="SourceGraphic" in2="effect1_dropShadow" result="shape"/>
</filter>
<filter id="filter6_dd" x="161" y="307" width="115" height="115" filterUnits="userSpaceOnUse" color-interpolation-filters="sRGB">
<feFlood flood-opacity="0" result="BackgroundImageFix"/>
<feColorMatrix in="SourceAlpha" type="matrix" values="0 0 0 0 0 0 0 0 0 0 0 0 0 0 0 0 0 0 127 0"/>
<feOffset dy="6"/>
<feGaussianBlur stdDeviation="10"/>
<feColorMatrix type="matrix" values="0 0 0 0 0 0 0 0 0 0 0 0 0 0 0 0 0 0 0.1 0"/>
<feBlend mode="normal" in2="BackgroundImageFix" result="effect1_dropShadow"/>
<feColorMatrix in="SourceAlpha" type="matrix" values="0 0 0 0 0 0 0 0 0 0 0 0 0 0 0 0 0 0 127 0"/>
<feOffset dy="1"/>
<feGaussianBlur stdDeviation="3"/>
<feColorMatrix type="matrix" values="0 0 0 0 0 0 0 0 0 0 0 0 0 0 0 0 0 0 0.05 0"/>
<feBlend mode="normal" in2="effect1_dropShadow" result="effect2_dropShadow"/>
<feBlend mode="normal" in="SourceGraphic" in2="effect2_dropShadow" result="shape"/>
</filter>
<filter id="filter7_d" x="199" y="340" width="38" height="38" filterUnits="userSpaceOnUse" color-interpolation-filters="sRGB">
<feFlood flood-opacity="0" result="BackgroundImageFix"/>
<feColorMatrix in="SourceAlpha" type="matrix" values="0 0 0 0 0 0 0 0 0 0 0 0 0 0 0 0 0 0 127 0"/>
<feOffset dx="4" dy="4"/>
<feColorMatrix type="matrix" values="0 0 0 0 0.552941 0 0 0 0 0.435294 0 0 0 0 0.00784314 0 0 0 1 0"/>
<feBlend mode="normal" in2="BackgroundImageFix" result="effect1_dropShadow"/>
<feBlend mode="normal" in="SourceGraphic" in2="effect1_dropShadow" result="shape"/>
</filter>
<filter id="filter8_dd" x="161" y="402" width="115" height="115" filterUnits="userSpaceOnUse" color-interpolation-filters="sRGB">
<feFlood flood-opacity="0" result="BackgroundImageFix"/>
<feColorMatrix in="SourceAlpha" type="matrix" values="0 0 0 0 0 0 0 0 0 0 0 0 0 0 0 0 0 0 127 0"/>
<feOffset dy="6"/>
<feGaussianBlur stdDeviation="10"/>
<feColorMatrix type="matrix" values="0 0 0 0 0 0 0 0 0 0 0 0 0 0 0 0 0 0 0.1 0"/>
<feBlend mode="normal" in2="BackgroundImageFix" result="effect1_dropShadow"/>
<feColorMatrix in="SourceAlpha" type="matrix" values="0 0 0 0 0 0 0 0 0 0 0 0 0 0 0 0 0 0 127 0"/>
<feOffset dy="1"/>
<feGaussianBlur stdDeviation="3"/>
<feColorMatrix type="matrix" values="0 0 0 0 0 0 0 0 0 0 0 0 0 0 0 0 0 0 0.05 0"/>
<feBlend mode="normal" in2="effect1_dropShadow" result="effect2_dropShadow"/>
<feBlend mode="normal" in="SourceGraphic" in2="effect2_dropShadow" result="shape"/>
</filter>
<filter id="filter9_dd" x="161" y="497" width="115" height="115" filterUnits="userSpaceOnUse" color-interpolation-filters="sRGB">
<feFlood flood-opacity="0" result="BackgroundImageFix"/>
<feColorMatrix in="SourceAlpha" type="matrix" values="0 0 0 0 0 0 0 0 0 0 0 0 0 0 0 0 0 0 127 0"/>
<feOffset dy="6"/>
<feGaussianBlur stdDeviation="10"/>
<feColorMatrix type="matrix" values="0 0 0 0 0 0 0 0 0 0 0 0 0 0 0 0 0 0 0.1 0"/>
<feBlend mode="normal" in2="BackgroundImageFix" result="effect1_dropShadow"/>
<feColorMatrix in="SourceAlpha" type="matrix" values="0 0 0 0 0 0 0 0 0 0 0 0 0 0 0 0 0 0 127 0"/>
<feOffset dy="1"/>
<feGaussianBlur stdDeviation="3"/>
<feColorMatrix type="matrix" values="0 0 0 0 0 0 0 0 0 0 0 0 0 0 0 0 0 0 0.05 0"/>
<feBlend mode="normal" in2="effect1_dropShadow" result="effect2_dropShadow"/>
<feBlend mode="normal" in="SourceGraphic" in2="effect2_dropShadow" result="shape"/>
</filter>
<filter id="filter10_dd" x="161" y="592" width="115" height="115" filterUnits="userSpaceOnUse" color-interpolation-filters="sRGB">
<feFlood flood-opacity="0" result="BackgroundImageFix"/>
<feColorMatrix in="SourceAlpha" type="matrix" values="0 0 0 0 0 0 0 0 0 0 0 0 0 0 0 0 0 0 127 0"/>
<feOffset dy="6"/>
<feGaussianBlur stdDeviation="10"/>
<feColorMatrix type="matrix" values="0 0 0 0 0 0 0 0 0 0 0 0 0 0 0 0 0 0 0.1 0"/>
<feBlend mode="normal" in2="BackgroundImageFix" result="effect1_dropShadow"/>
<feColorMatrix in="SourceAlpha" type="matrix" values="0 0 0 0 0 0 0 0 0 0 0 0 0 0 0 0 0 0 127 0"/>
<feOffset dy="1"/>
<feGaussianBlur stdDeviation="3"/>
<feColorMatrix type="matrix" values="0 0 0 0 0 0 0 0 0 0 0 0 0 0 0 0 0 0 0.05 0"/>
<feBlend mode="normal" in2="effect1_dropShadow" result="effect2_dropShadow"/>
<feBlend mode="normal" in="SourceGraphic" in2="effect2_dropShadow" result="shape"/>
</filter>
<filter id="filter11_dd" x="161" y="687" width="115" height="115" filterUnits="userSpaceOnUse" color-interpolation-filters="sRGB">
<feFlood flood-opacity="0" result="BackgroundImageFix"/>
<feColorMatrix in="SourceAlpha" type="matrix" values="0 0 0 0 0 0 0 0 0 0 0 0 0 0 0 0 0 0 127 0"/>
<feOffset dy="6"/>
<feGaussianBlur stdDeviation="10"/>
<feColorMatrix type="matrix" values="0 0 0 0 0 0 0 0 0 0 0 0 0 0 0 0 0 0 0.1 0"/>
<feBlend mode="normal" in2="BackgroundImageFix" result="effect1_dropShadow"/>
<feColorMatrix in="SourceAlpha" type="matrix" values="0 0 0 0 0 0 0 0 0 0 0 0 0 0 0 0 0 0 127 0"/>
<feOffset dy="1"/>
<feGaussianBlur stdDeviation="3"/>
<feColorMatrix type="matrix" values="0 0 0 0 0 0 0 0 0 0 0 0 0 0 0 0 0 0 0.05 0"/>
<feBlend mode="normal" in2="effect1_dropShadow" result="effect2_dropShadow"/>
<feBlend mode="normal" in="SourceGraphic" in2="effect2_dropShadow" result="shape"/>
</filter>
</defs>
</svg>
